<svg xmlns="http://www.w3.org/2000/svg" width="999" height="555" viewBox="0 0 999 555" font-family="Segoe UI, -apple-system, BlinkMacSystemFont, Helvetica, Arial, sans-serif">
<defs><filter id="cs" x="-20%" y="-20%" width="140%" height="140%"><feDropShadow dx="0" dy="1" stdDeviation="1.3" flood-color="#000" flood-opacity="0.1"/></filter></defs>
<rect width="999" height="555" fill="#ffffff"/>
<rect x="0" y="78.0" width="999" height="90.0" fill="#ffffff"/>
<line x1="0" y1="78.0" x2="999" y2="78.0" stroke="#e6e4e2"/>
<text x="843.0" y="127.5" font-size="13" font-weight="700" fill="#323130">Model root</text>
<rect x="0" y="168.0" width="999" height="114.0" fill="#faf9f8"/>
<line x1="0" y1="168.0" x2="999" y2="168.0" stroke="#e6e4e2"/>
<text x="843.0" y="229.5" font-size="13" font-weight="700" fill="#323130">Flows</text>
<rect x="0" y="282.0" width="999" height="90.0" fill="#ffffff"/>
<line x1="0" y1="282.0" x2="999" y2="282.0" stroke="#e6e4e2"/>
<text x="843.0" y="331.5" font-size="13" font-weight="700" fill="#323130">System flows</text>
<rect x="0" y="372.0" width="999" height="117.0" fill="#faf9f8"/>
<line x1="0" y1="372.0" x2="999" y2="372.0" stroke="#e6e4e2"/>
<text x="843.0" y="426.5" font-size="13" font-weight="700" fill="#323130">Azure resources and</text>
<text x="843.0" y="443.5" font-size="13" font-weight="700" fill="#323130">their signals</text>
<line x1="0" y1="506.5" x2="999" y2="506.5" stroke="#e6e4e2"/>
<text x="40" y="34" font-size="18" font-weight="700" fill="#242424">Connectivity-Contoso-Prod</text>
<text x="40" y="52" font-size="12" fill="#605e5c">The referenced model carries the entities and the signals</text>
<text x="40.0" y="545.0" font-size="11.5" font-weight="600" fill="#605e5c">Legend</text>
<circle cx="99.7" cy="541.0" r="4.5" fill="#4c9a2a"/>
<text x="109.7" y="545.0" font-size="11.5" fill="#323130">Healthy</text>
<circle cx="165.5" cy="541.0" r="4.5" fill="#c26a00"/>
<text x="175.5" y="545.0" font-size="11.5" fill="#323130">Degraded</text>
<circle cx="243.0" cy="541.0" r="4.5" fill="#c50f18"/>
<text x="253.0" y="545.0" font-size="11.5" fill="#323130">Unhealthy</text>
<circle cx="321.8" cy="541.0" r="4.5" fill="#8a8886"/>
<text x="331.8" y="545.0" font-size="11.5" fill="#323130">Unknown</text>
<g transform="translate(390.7,534.0) scale(0.875)"><rect x="1.5" y="8" width="2.6" height="6" rx="0.6" fill="#8661c5"/><rect x="5.7" y="4.5" width="2.6" height="9.5" rx="0.6" fill="#0078D4"/><rect x="9.9" y="6.5" width="2.6" height="7.5" rx="0.6" fill="#3fb0ac"/></g>
<text x="408.7" y="545.0" font-size="11.5" fill="#323130">Metric</text>
<g transform="translate(40.0,0)">
<g fill="none" stroke-linecap="butt" stroke-linejoin="round">
<path d="M163.0 390.0 L163.0 358.0" stroke="#ba0d16" stroke-width="1.7"/>
<path d="M392.5 390.0 L392.5 358.0" stroke="#a0d8a0" stroke-width="1.7"/>
<path d="M632.0 390.0 L632.0 358.0" stroke="#a0d8a0" stroke-width="1.7"/>
<path d="M395.8 300.0 L395.8 244.0" stroke="#a0d8a0" stroke-width="1.7"/>
<path d="M632.0 300.0 L632.0 271.0 Q632.0 264.0 625.0 264.0 L510.8 264.0 Q503.8 264.0 503.8 257.0 L503.8 244.0" stroke="#a0d8a0" stroke-width="1.7"/>
<path d="M163.0 300.0 L163.0 271.0 Q163.0 264.0 170.0 264.0 L284.8 264.0 Q291.8 264.0 291.8 257.0 L291.8 244.0" stroke="#ba0d16" stroke-width="1.7"/>
<path d="M395.8 186.0 L395.8 154.0" stroke="#db7500" stroke-width="1.7"/>
</g>
<g filter="url(#cs)"><rect x="0.0" y="390.0" width="256" height="85" rx="10" fill="#faeceb" stroke="#ba0d16" stroke-width="2"/></g><g transform="translate(6.0,397.16) scale(0.82)"><path d="M12 3.2l7.6 4.4v8.8L12 20.8l-7.6-4.4V7.6z" fill="none" stroke="#605e5c" stroke-width="1.6" stroke-linecap="round" stroke-linejoin="round"/><path d="M4.6 7.8l7.4 4.3 7.4-4.3M12 12.1v8.6" fill="none" stroke="#605e5c" stroke-width="1.6" stroke-linecap="round" stroke-linejoin="round"/></g><text x="34.0" y="410.5" font-size="12.5" font-weight="600" fill="#242424">ExpressRoute circuit</text><rect x="171.8" y="398.00" width="76.2" height="18" rx="9" fill="#ffffff" stroke="#ba0d16" stroke-width="1"/><circle cx="182.8" cy="407.0" r="6" fill="#c50f18"/><text x="191.8" y="410.57" font-size="10.5" fill="#323130">Unhealthy</text><line x1="1.0" y1="427.0" x2="255.0" y2="427.0" stroke="#e6e4e2"/><circle cx="16.0" cy="442.0" r="6" fill="#c50f18"/><g transform="translate(32.0,435.0) scale(0.875)"><rect x="1.5" y="8" width="2.6" height="6" rx="0.6" fill="#8661c5"/><rect x="5.7" y="4.5" width="2.6" height="9.5" rx="0.6" fill="#0078D4"/><rect x="9.9" y="6.5" width="2.6" height="7.5" rx="0.6" fill="#3fb0ac"/></g><text x="52.0" y="445.5" font-size="10.5" fill="#242424">ExpressRoute BGP availability</text><text x="244.0" y="445.5" font-size="10.5" font-weight="600" fill="#c50f18" text-anchor="end">98.7%</text><line x1="10.0" y1="451.0" x2="246.0" y2="451.0" stroke="#e6e4e2" stroke-opacity="0.7"/><circle cx="16.0" cy="460.0" r="6" fill="#4c9a2a"/><path d="M13.3 460.0 l1.9 1.9 l3.4 -3.9" fill="none" stroke="#ffffff" stroke-width="1.4" stroke-linecap="round" stroke-linejoin="round"/><g transform="translate(32.0,453.0) scale(0.875)"><rect x="1.5" y="8" width="2.6" height="6" rx="0.6" fill="#8661c5"/><rect x="5.7" y="4.5" width="2.6" height="9.5" rx="0.6" fill="#0078D4"/><rect x="9.9" y="6.5" width="2.6" height="7.5" rx="0.6" fill="#3fb0ac"/></g><text x="52.0" y="463.5" font-size="10.5" fill="#242424">Ingress bits</text><text x="244.0" y="463.5" font-size="10.5" font-weight="400" fill="#605e5c" text-anchor="end">1.4 Gbps</text>
<g filter="url(#cs)"><rect x="286.0" y="390.0" width="238" height="67" rx="10" fill="#f2f8f2" stroke="#a0d8a0" stroke-width="2"/></g><g transform="translate(292.0,397.16) scale(0.82)"><circle cx="5.5" cy="6" r="2" fill="none" stroke="#605e5c" stroke-width="1.6" stroke-linecap="round" stroke-linejoin="round"/><circle cx="5.5" cy="18" r="2" fill="none" stroke="#605e5c" stroke-width="1.6" stroke-linecap="round" stroke-linejoin="round"/><circle cx="18.5" cy="12" r="2" fill="none" stroke="#605e5c" stroke-width="1.6" stroke-linecap="round" stroke-linejoin="round"/><path d="M7.5 6h3a4 4 0 0 1 4 4M7.5 18h3a4 4 0 0 0 4-4" fill="none" stroke="#605e5c" stroke-width="1.6" stroke-linecap="round" stroke-linejoin="round"/></g><text x="320.0" y="410.5" font-size="12.5" font-weight="600" fill="#242424">VPN gateway</text><rect x="451.7" y="398.00" width="64.3" height="18" rx="9" fill="#ffffff" stroke="#a0d8a0" stroke-width="1"/><circle cx="462.7" cy="407.0" r="6" fill="#4c9a2a"/><path d="M460.0 407.0 l1.9 1.9 l3.4 -3.9" fill="none" stroke="#ffffff" stroke-width="1.4" stroke-linecap="round" stroke-linejoin="round"/><text x="471.7" y="410.57" font-size="10.5" fill="#323130">Healthy</text><line x1="287.0" y1="427.0" x2="523.0" y2="427.0" stroke="#e6e4e2"/><circle cx="302.0" cy="442.0" r="6" fill="#4c9a2a"/><path d="M299.3 442.0 l1.9 1.9 l3.4 -3.9" fill="none" stroke="#ffffff" stroke-width="1.4" stroke-linecap="round" stroke-linejoin="round"/><g transform="translate(318.0,435.0) scale(0.875)"><rect x="1.5" y="8" width="2.6" height="6" rx="0.6" fill="#8661c5"/><rect x="5.7" y="4.5" width="2.6" height="9.5" rx="0.6" fill="#0078D4"/><rect x="9.9" y="6.5" width="2.6" height="7.5" rx="0.6" fill="#3fb0ac"/></g><text x="338.0" y="445.5" font-size="10.5" fill="#242424">Azure Resource Health</text><text x="512.0" y="445.5" font-size="10.5" font-weight="400" fill="#605e5c" text-anchor="end">Available</text>
<g filter="url(#cs)"><rect x="554.0" y="390.0" width="201" height="85" rx="10" fill="#f2f8f2" stroke="#a0d8a0" stroke-width="2"/></g><g transform="translate(560.0,397.16) scale(0.82)"><path d="M12 3l7 2.6v5.2c0 4.6-3 7.9-7 9.2-4-1.3-7-4.6-7-9.2V5.6z" fill="none" stroke="#605e5c" stroke-width="1.6" stroke-linecap="round" stroke-linejoin="round"/><path d="M8.8 12.2l2.2 2.2 4-4.6" fill="none" stroke="#605e5c" stroke-width="1.6" stroke-linecap="round" stroke-linejoin="round"/></g><text x="588.0" y="410.5" font-size="12.5" font-weight="600" fill="#242424">Azure Firewall</text><rect x="682.7" y="398.00" width="64.3" height="18" rx="9" fill="#ffffff" stroke="#a0d8a0" stroke-width="1"/><circle cx="693.7" cy="407.0" r="6" fill="#4c9a2a"/><path d="M691.0 407.0 l1.9 1.9 l3.4 -3.9" fill="none" stroke="#ffffff" stroke-width="1.4" stroke-linecap="round" stroke-linejoin="round"/><text x="702.7" y="410.57" font-size="10.5" fill="#323130">Healthy</text><line x1="555.0" y1="427.0" x2="754.0" y2="427.0" stroke="#e6e4e2"/><circle cx="570.0" cy="442.0" r="6" fill="#4c9a2a"/><path d="M567.3 442.0 l1.9 1.9 l3.4 -3.9" fill="none" stroke="#ffffff" stroke-width="1.4" stroke-linecap="round" stroke-linejoin="round"/><g transform="translate(586.0,435.0) scale(0.875)"><rect x="1.5" y="8" width="2.6" height="6" rx="0.6" fill="#8661c5"/><rect x="5.7" y="4.5" width="2.6" height="9.5" rx="0.6" fill="#0078D4"/><rect x="9.9" y="6.5" width="2.6" height="7.5" rx="0.6" fill="#3fb0ac"/></g><text x="606.0" y="445.5" font-size="10.5" fill="#242424">SNAT port utilization</text><text x="743.0" y="445.5" font-size="10.5" font-weight="400" fill="#605e5c" text-anchor="end">42%</text><line x1="564.0" y1="451.0" x2="745.0" y2="451.0" stroke="#e6e4e2" stroke-opacity="0.7"/><circle cx="570.0" cy="460.0" r="6" fill="#4c9a2a"/><path d="M567.3 460.0 l1.9 1.9 l3.4 -3.9" fill="none" stroke="#ffffff" stroke-width="1.4" stroke-linecap="round" stroke-linejoin="round"/><g transform="translate(586.0,453.0) scale(0.875)"><rect x="1.5" y="8" width="2.6" height="6" rx="0.6" fill="#8661c5"/><rect x="5.7" y="4.5" width="2.6" height="9.5" rx="0.6" fill="#0078D4"/><rect x="9.9" y="6.5" width="2.6" height="7.5" rx="0.6" fill="#3fb0ac"/></g><text x="606.0" y="463.5" font-size="10.5" fill="#242424">Firewall health</text><text x="743.0" y="463.5" font-size="10.5" font-weight="400" fill="#605e5c" text-anchor="end">100%</text>
<g filter="url(#cs)"><rect x="60.5" y="300.0" width="205" height="58" rx="10" fill="#faeceb" stroke="#ba0d16" stroke-width="2"/></g><g transform="translate(66.5,319.16) scale(0.82)"><path d="M12 3.2l7.6 4.4v8.8L12 20.8l-7.6-4.4V7.6z" fill="none" stroke="#605e5c" stroke-width="1.6" stroke-linecap="round" stroke-linejoin="round"/><path d="M4.6 7.8l7.4 4.3 7.4-4.3M12 12.1v8.6" fill="none" stroke="#605e5c" stroke-width="1.6" stroke-linecap="round" stroke-linejoin="round"/></g><text x="94.5" y="327.0" font-size="12.5" font-weight="600" fill="#242424">Primary path</text><text x="94.5" y="339.0" font-size="9" fill="#605e5c">worst of</text><rect x="181.3" y="320.00" width="76.2" height="18" rx="9" fill="#ffffff" stroke="#ba0d16" stroke-width="1"/><circle cx="192.3" cy="329.0" r="6" fill="#c50f18"/><text x="201.3" y="332.57" font-size="10.5" fill="#323130">Unhealthy</text>
<g filter="url(#cs)"><rect x="295.5" y="300.0" width="194" height="58" rx="10" fill="#f2f8f2" stroke="#a0d8a0" stroke-width="2"/></g><g transform="translate(301.5,319.16) scale(0.82)"><path d="M12 3.2l7.6 4.4v8.8L12 20.8l-7.6-4.4V7.6z" fill="none" stroke="#605e5c" stroke-width="1.6" stroke-linecap="round" stroke-linejoin="round"/><path d="M4.6 7.8l7.4 4.3 7.4-4.3M12 12.1v8.6" fill="none" stroke="#605e5c" stroke-width="1.6" stroke-linecap="round" stroke-linejoin="round"/></g><text x="329.5" y="332.5" font-size="12.5" font-weight="600" fill="#242424">Failover path</text><rect x="417.2" y="320.00" width="64.3" height="18" rx="9" fill="#ffffff" stroke="#a0d8a0" stroke-width="1"/><circle cx="428.2" cy="329.0" r="6" fill="#4c9a2a"/><path d="M425.5 329.0 l1.9 1.9 l3.4 -3.9" fill="none" stroke="#ffffff" stroke-width="1.4" stroke-linecap="round" stroke-linejoin="round"/><text x="437.2" y="332.57" font-size="10.5" fill="#323130">Healthy</text>
<g filter="url(#cs)"><rect x="519.5" y="300.0" width="225" height="58" rx="10" fill="#f2f8f2" stroke="#a0d8a0" stroke-width="2"/></g><g transform="translate(525.5,319.16) scale(0.82)"><path d="M12 3.2l7.6 4.4v8.8L12 20.8l-7.6-4.4V7.6z" fill="none" stroke="#605e5c" stroke-width="1.6" stroke-linecap="round" stroke-linejoin="round"/><path d="M4.6 7.8l7.4 4.3 7.4-4.3M12 12.1v8.6" fill="none" stroke="#605e5c" stroke-width="1.6" stroke-linecap="round" stroke-linejoin="round"/></g><text x="553.5" y="332.5" font-size="12.5" font-weight="600" fill="#242424">Egress inspection</text><rect x="672.2" y="320.00" width="64.3" height="18" rx="9" fill="#ffffff" stroke="#a0d8a0" stroke-width="1"/><circle cx="683.2" cy="329.0" r="6" fill="#4c9a2a"/><path d="M680.5 329.0 l1.9 1.9 l3.4 -3.9" fill="none" stroke="#ffffff" stroke-width="1.4" stroke-linecap="round" stroke-linejoin="round"/><text x="692.2" y="332.57" font-size="10.5" fill="#323130">Healthy</text>
<g filter="url(#cs)"><rect x="273.8" y="186.0" width="244" height="58" rx="10" fill="#fbf2e7" stroke="#db7500" stroke-width="2"/></g><g transform="translate(279.8,205.16) scale(0.82)"><path d="M12 3.2l7.6 4.4v8.8L12 20.8l-7.6-4.4V7.6z" fill="none" stroke="#605e5c" stroke-width="1.6" stroke-linecap="round" stroke-linejoin="round"/><path d="M4.6 7.8l7.4 4.3 7.4-4.3M12 12.1v8.6" fill="none" stroke="#605e5c" stroke-width="1.6" stroke-linecap="round" stroke-linejoin="round"/></g><text x="307.8" y="213.0" font-size="12.5" font-weight="600" fill="#242424">Hybrid connectivity</text><text x="307.8" y="225.0" font-size="9" fill="#605e5c">not-healthy limit</text><rect x="434.8" y="206.00" width="75.0" height="18" rx="9" fill="#ffffff" stroke="#db7500" stroke-width="1"/><circle cx="445.8" cy="215.0" r="6" fill="#c26a00"/><text x="454.8" y="218.57" font-size="10.5" fill="#323130">Degraded</text>
<g filter="url(#cs)"><rect x="250.3" y="96.0" width="291" height="58" rx="10" fill="#fbf2e7" stroke="#db7500" stroke-width="2"/></g><g transform="translate(256.3,115.16) scale(0.82)"><path d="M12 3.2l7.6 4.4v8.8L12 20.8l-7.6-4.4V7.6z" fill="none" stroke="#605e5c" stroke-width="1.6" stroke-linecap="round" stroke-linejoin="round"/><path d="M4.6 7.8l7.4 4.3 7.4-4.3M12 12.1v8.6" fill="none" stroke="#605e5c" stroke-width="1.6" stroke-linecap="round" stroke-linejoin="round"/></g><text x="284.3" y="128.5" font-size="12.5" font-weight="600" fill="#242424">Connectivity-Contoso-Prod</text><rect x="458.3" y="116.00" width="75.0" height="18" rx="9" fill="#ffffff" stroke="#db7500" stroke-width="1"/><circle cx="469.3" cy="125.0" r="6" fill="#c26a00"/><text x="478.3" y="128.57" font-size="10.5" fill="#323130">Degraded</text>
</g></svg>